name C:\Users\antoi\Documents\MyRepositories\upper-imu-dc\Results\main_tracking\Case_85\kinematics.mot
datacolumns 43
datarows 5
range 4.50000000 4.58000000
endheader 
time	clav_prot	clav_elev	scapula_abduction	scapula_elevation	scapula_upward_rot	scapula_winging	plane_elv	shoulder_elv	axial_rot	TrapeziusScapula_M/activation	TrapeziusScapula_S/activation	TrapeziusScapula_I/activation	TrapeziusClavicle_S/activation	SerratusAnterior_I/activation	SerratusAnterior_M/activation	SerratusAnterior_S/activation	Rhomboideus_S/activation	Rhomboideus_I/activation	LevatorScapulae/activation	Coracobrachialis/activation	DeltoideusClavicle_A/activation	DeltoideusScapula_P/activation	DeltoideusScapula_M/activation	LatissimusDorsi_S/activation	LatissimusDorsi_M/activation	LatissimusDorsi_I/activation	PectoralisMajorClavicle_S/activation	PectoralisMajorThorax_I/activation	PectoralisMajorThorax_M/activation	TeresMajor/activation	Infraspinatus_I/activation	Infraspinatus_S/activation	PectoralisMinor/activation	TeresMinor/activation	Subscapularis_S/activation	Subscapularis_M/activation	Subscapularis_I/activation	Supraspinatus_P/activation	Supraspinatus_A/activation	TRIlong/activation	BIC_long/activation	BIC_brevis/activation	
          4.50000000	        -29.21513642	         -1.89511465	        -14.75907097	         -6.09841612	         27.99358352	          0.51715142	         -4.09567891	         73.44955993	          2.66087486	          0.01000046	          0.08141252	          0.01000000	          0.02846774	          0.05395564	          0.08956814	          0.01000000	          0.01036281	          0.01000001	          0.02420925	          0.02133183	          0.08973048	          0.01000000	          0.11554886	          0.01000000	          0.01000000	          0.01000000	          0.02186005	          0.01000000	          0.01000000	          0.01000000	          0.01000002	          0.01294736	          0.01000000	          0.01000000	          0.01051556	          0.01000000	          0.01000000	          0.03320409	          0.06845453	          0.01000000	          0.06698542	          0.02021917	
          4.52000000	        -29.65353033	         -1.68361422	        -15.15265855	         -6.08216680	         28.55959634	          0.23722766	         -3.34825790	         73.69792450	          2.79601300	          0.01003435	          0.08186478	          0.01000000	          0.02828356	          0.05403028	          0.08960003	          0.01000000	          0.01027074	          0.01000001	          0.02367897	          0.02254596	          0.09141689	          0.01000000	          0.11528047	          0.01000000	          0.01000000	          0.01000000	          0.02224708	          0.01000000	          0.01000000	          0.01000000	          0.01000003	          0.01272746	          0.01000000	          0.01000000	          0.01091354	          0.01000000	          0.01000000	          0.03361394	          0.06942547	          0.01000000	          0.06736650	          0.02116416	
          4.54000000	        -30.11063335	         -1.47678378	        -15.55789033	         -6.07351723	         29.14628564	         -0.05398858	         -2.57920922	         73.92169784	          2.89518476	          0.01014398	          0.08217340	          0.01000000	          0.02806916	          0.05404240	          0.08956159	          0.01000000	          0.01018789	          0.01000001	          0.02314052	          0.02392375	          0.09315162	          0.01000000	          0.11474435	          0.01000000	          0.01000000	          0.01000000	          0.02271835	          0.01000000	          0.01000000	          0.01000000	          0.01000002	          0.01238306	          0.01000000	          0.01000000	          0.01138396	          0.01000000	          0.01000000	          0.03404042	          0.07049557	          0.01000000	          0.06779635	          0.02222540	
          4.56000000	        -30.58480843	         -1.27456194	        -15.97409565	         -6.07145157	         29.75006268	         -0.35602176	         -1.78926484	         74.12161390	          2.96016441	          0.01030969	          0.08239203	          0.01000000	          0.02784036	          0.05399678	          0.08948847	          0.01000000	          0.01012287	          0.01000001	          0.02262563	          0.02543191	          0.09494265	          0.01000000	          0.11406596	          0.01000000	          0.01000000	          0.01000000	          0.02325762	          0.01000000	          0.01000000	          0.01000000	          0.01000002	          0.01192459	          0.01000000	          0.01000000	          0.01191594	          0.01000000	          0.01000000	          0.03448613	          0.07164649	          0.01000000	          0.06826424	          0.02338559	
          4.58000000	        -31.07374971	         -1.07621655	        -16.40071262	         -6.07420720	         30.36601993	         -0.66815304	         -0.97869747	         74.29891267	          2.99653370	          0.01050764	          0.08258887	          0.01000000	          0.02761494	          0.05391429	          0.08941356	          0.01000000	          0.01007684	          0.01000000	          0.02214716	          0.02702758	          0.09678336	          0.01000000	          0.11337373	          0.01000000	          0.01000000	          0.01000000	          0.02384659	          0.01000000	          0.01000000	          0.01000000	          0.01000001	          0.01140822	          0.01000000	          0.01000000	          0.01248014	          0.01000000	          0.01000000	          0.03496095	          0.07285461	          0.01000000	          0.06872807	          0.02462485	
